<svg xmlns="http://www.w3.org/2000/svg" width="16.351" height="13.279" viewBox="0 0 16.351 13.279">
  <path id="Icon_awesome-twitter" data-name="Icon awesome-twitter" d="M14.67,6.69c.01.145.01.291.01.436A9.469,9.469,0,0,1,5.146,16.66,9.47,9.47,0,0,1,0,15.156a6.933,6.933,0,0,0,.809.041,6.712,6.712,0,0,0,4.16-1.432,3.357,3.357,0,0,1-3.133-2.324,4.226,4.226,0,0,0,.633.052,3.544,3.544,0,0,0,.882-.114A3.351,3.351,0,0,1,.664,8.091V8.049a3.375,3.375,0,0,0,1.515.425A3.356,3.356,0,0,1,1.141,3.993,9.526,9.526,0,0,0,8.051,7.5a3.783,3.783,0,0,1-.083-.768,3.354,3.354,0,0,1,5.8-2.293,6.6,6.6,0,0,0,2.127-.809,3.342,3.342,0,0,1-1.473,1.847,6.718,6.718,0,0,0,1.93-.519A7.2,7.2,0,0,1,14.67,6.69Z" transform="translate(0 -3.381)"/>
</svg>
