<svg xmlns="http://www.w3.org/2000/svg" width="16.763" height="16.762" viewBox="0 0 16.763 16.762">
  <path id="Icon_metro-youtube" data-name="Icon metro-youtube" d="M7.37,1.928,6.238,4.174,5.1,1.928H3.66L5.7,5.485l.012-.007V8.214H6.761V5.478l.012.007L8.815,1.928Zm3.058,2.1a.531.531,0,0,1,.524.524v2.1a.524.524,0,0,1-1.048,0v-2.1a.531.531,0,0,1,.524-.524Zm0-1.048A1.576,1.576,0,0,0,8.857,4.547v2.1a1.572,1.572,0,0,0,3.143,0v-2.1A1.576,1.576,0,0,0,10.428,2.976Zm4.715,0V7.1c-.457.381-1.048.611-1.048-.747V2.976H13.047v3.59h0c.016.866.2,2.425,2.094,1.157v.49H16.19V2.976Zm1.572,10.476a.524.524,0,0,0-.524.524V14.5h1.048v-.524a.524.524,0,0,0-.524-.524ZM12,13.976v2.75c.355.355,1.048.393,1.048-.131V14.139C13.047,13.615,12.524,13.452,12,13.976Zm7.248-2.528a2.178,2.178,0,0,0-2.142-2.1c-1.142-.057-3.756-.085-6.052-.085s-5.1.028-6.238.085a2.178,2.178,0,0,0-2.142,2.1c-.069,1.23-.1,1.675-.1,2.29s.034,1.537.1,2.767a2.178,2.178,0,0,0,2.142,2.1c1.142.057,3.942.085,6.238.085s4.91-.028,6.052-.085a2.178,2.178,0,0,0,2.142-2.1q.086-1.537.086-2.767c0-.82-.029-1.266-.086-2.29ZM5.714,17.642H4.666V12.4H3.618V11.357H6.761V12.4H5.714Zm4.191,0H8.857v-.49c-1.992,1.118-2.078.036-2.094-.83h0v-2.87H7.809v2.886c0,.633.591.572,1.048.19V13.452H9.9ZM14.1,16.58c0,1.095-1.121,1.414-2.1.563v.5H10.952V11.357H12v1.7c1.048-1.048,2.1-.655,2.1.393Zm4.191-2.08v.524h-2.1v1.048a.524.524,0,0,0,1.048,0v-.524h1.048v.524a1.572,1.572,0,0,1-3.143,0v-2.1a1.572,1.572,0,0,1,3.143,0V14.5Z" transform="translate(-2.571 -1.928)"/>
</svg>
